# xmcd
#
# Track frame offsets: 
#        150
#        18487
#        42052
#        67337
#        88975
#        112200
#        134367
#        161692
#        186525
#        210860
#
# Disc length: 3177 seconds
#
# Revision: 1
# Processed by: cddbd v1.5.2PL0 Copyright (c) Steve Scherf et al.
# Submitted via: ExactAudioCopy v0.99pb3
#
DISCID=950c670a
DTITLE=Rage Against the Machine - Rage Against the Machine
DYEAR=92
DGENRE=Alt. Rock
TTITLE0=Bombtrack
TTITLE1=Killing in the Name
TTITLE2=Take the Power Back
TTITLE3=Settle for Nothing
TTITLE4=Bullet in the Head
TTITLE5=Know Your Enemy
TTITLE6=Wake Up
TTITLE7=Fistful of Steel
TTITLE8=Township Rebellion
TTITLE9=Freedom
EXTD=
EXTT0=
EXTT1=
EXTT2=
EXTT3=
EXTT4=
EXTT5=
EXTT6=
EXTT7=
EXTT8=
EXTT9=
PLAYORDER=
